<svg xmlns="http://www.w3.org/2000/svg" width="72" height="16" fill="none" viewBox="0 0 72 16"><path fill="#fff" d="M5.26434 15.9053C4.48472 15.9053 3.77866 15.7656 3.14614 15.4861C2.52834 15.2066 1.99143 14.8095 1.53543 14.2946C1.09414 13.7651 0.748467 13.1399 0.498402 12.4191C0.263047 11.6836 0.14537 10.8599 0.14537 9.9479C0.14537 9.05061 0.263047 8.23423 0.498402 7.49874C0.748467 6.76326 1.09414 6.1381 1.53543 5.62326C1.99143 5.09371 2.52834 4.68919 3.14614 4.40971C3.77866 4.13023 4.48472 3.99048 5.26434 3.99048C6.02924 3.99048 6.71324 4.13023 7.31634 4.40971C7.91943 4.68919 8.43427 5.079 8.86085 5.57913C9.28743 6.06455 9.61105 6.64558 9.83169 7.32223C10.067 7.99887 10.1847 8.74171 10.1847 9.55074V10.3892H1.99879V10.9187C1.99879 11.4042 2.07234 11.8602 2.21943 12.2867C2.38124 12.6986 2.60189 13.059 2.88137 13.3679C3.17556 13.6768 3.5286 13.9195 3.94047 14.096C4.36705 14.2725 4.84511 14.3608 5.37466 14.3608C6.09543 14.3608 6.7206 14.1916 7.25014 13.8533C7.7944 13.515 8.21363 13.0296 8.50782 12.3971L9.7655 13.3017C9.39776 14.0813 8.82408 14.7138 8.04447 15.1993C7.26485 15.67 6.33814 15.9053 5.26434 15.9053ZM5.26434 5.46881C4.77892 5.46881 4.33763 5.55706 3.94047 5.73358C3.54331 5.89539 3.19763 6.13074 2.90343 6.43964C2.62395 6.74855 2.40331 7.11629 2.2415 7.54287C2.07969 7.95474 1.99879 8.41074 1.99879 8.91087V9.06532H8.28718V8.82261C8.28718 7.80765 8.00769 6.99861 7.44872 6.39552C6.90447 5.77771 6.17634 5.46881 5.26434 5.46881ZM13.4118 15.6405V14.0078H17.7144V1.60752H17.5599L13.6766 5.2261L12.5954 4.05668L16.6774 0.239516H19.5678V14.0078H23.5394V15.6405H13.4118ZM31.1084 15.9053C30.3288 15.9053 29.6227 15.7656 28.9902 15.4861C28.3724 15.2066 27.8355 14.8095 27.3795 14.2946C26.9382 13.7651 26.5925 13.1399 26.3425 12.4191C26.1071 11.6836 25.9894 10.8599 25.9894 9.9479C25.9894 9.05061 26.1071 8.23423 26.3425 7.49874C26.5925 6.76326 26.9382 6.1381 27.3795 5.62326C27.8355 5.09371 28.3724 4.68919 28.9902 4.40971C29.6227 4.13023 30.3288 3.99048 31.1084 3.99048C31.8733 3.99048 32.5573 4.13023 33.1604 4.40971C33.7635 4.68919 34.2783 5.079 34.7049 5.57913C35.1315 6.06455 35.4551 6.64558 35.6757 7.32223C35.9111 7.99887 36.0288 8.74171 36.0288 9.55074V10.3892H27.8428V10.9187C27.8428 11.4042 27.9164 11.8602 28.0635 12.2867C28.2253 12.6986 28.4459 13.059 28.7254 13.3679C29.0196 13.6768 29.3726 13.9195 29.7845 14.096C30.2111 14.2725 30.6892 14.3608 31.2187 14.3608C31.9395 14.3608 32.5646 14.1916 33.0942 13.8533C33.6385 13.515 34.0577 13.0296 34.3519 12.3971L35.6095 13.3017C35.2418 14.0813 34.6681 14.7138 33.8885 15.1993C33.1089 15.67 32.1822 15.9053 31.1084 15.9053ZM31.1084 5.46881C30.623 5.46881 30.1817 5.55706 29.7845 5.73358C29.3874 5.89539 29.0417 6.13074 28.7475 6.43964C28.468 6.74855 28.2474 7.11629 28.0855 7.54287C27.9237 7.95474 27.8428 8.41074 27.8428 8.91087V9.06532H34.1312V8.82261C34.1312 7.80765 33.8517 6.99861 33.2928 6.39552C32.7485 5.77771 32.0204 5.46881 31.1084 5.46881ZM41.5326 15.6405L37.539 4.25526H39.3041L41.2899 9.90377L42.5255 13.7871H42.6359L43.8715 9.90377L45.9014 4.25526H47.6004L43.5846 15.6405H41.5326ZM54.2375 15.9053C53.4579 15.9053 52.7518 15.7656 52.1193 15.4861C51.5015 15.2066 50.9646 14.8095 50.5086 14.2946C50.0673 13.7651 49.7216 13.1399 49.4715 12.4191C49.2362 11.6836 49.1185 10.8599 49.1185 9.9479C49.1185 9.05061 49.2362 8.23423 49.4715 7.49874C49.7216 6.76326 50.0673 6.1381 50.5086 5.62326C50.9646 5.09371 51.5015 4.68919 52.1193 4.40971C52.7518 4.13023 53.4579 3.99048 54.2375 3.99048C55.0024 3.99048 55.6864 4.13023 56.2895 4.40971C56.8926 4.68919 57.4074 5.079 57.834 5.57913C58.2606 6.06455 58.5842 6.64558 58.8048 7.32223C59.0402 7.99887 59.1579 8.74171 59.1579 9.55074V10.3892H50.9719V10.9187C50.9719 11.4042 51.0455 11.8602 51.1926 12.2867C51.3544 12.6986 51.575 13.059 51.8545 13.3679C52.1487 13.6768 52.5017 13.9195 52.9136 14.096C53.3402 14.2725 53.8182 14.3608 54.3478 14.3608C55.0686 14.3608 55.6937 14.1916 56.2233 13.8533C56.7675 13.515 57.1868 13.0296 57.481 12.3971L58.7386 13.3017C58.3709 14.0813 57.7972 14.7138 57.0176 15.1993C56.238 15.67 55.3113 15.9053 54.2375 15.9053ZM54.2375 5.46881C53.752 5.46881 53.3108 5.55706 52.9136 5.73358C52.5164 5.89539 52.1708 6.13074 51.8766 6.43964C51.5971 6.74855 51.3764 7.11629 51.2146 7.54287C51.0528 7.95474 50.9719 8.41074 50.9719 8.91087V9.06532H57.2603V8.82261C57.2603 7.80765 56.9808 6.99861 56.4219 6.39552C55.8776 5.77771 55.1495 5.46881 54.2375 5.46881ZM62.3187 15.6405V4.25526H64.0839V6.10868H64.1722C64.4516 5.46145 64.8415 4.94661 65.3416 4.56416C65.8564 4.18171 66.5404 3.99048 67.3936 3.99048C68.5704 3.99048 69.4971 4.37294 70.1737 5.13784C70.8651 5.88803 71.2107 6.95448 71.2107 8.33719V15.6405H69.4456V8.6461C69.4456 6.60145 68.5851 5.57913 66.864 5.57913C66.511 5.57913 66.1653 5.62326 65.827 5.71152C65.5034 5.79977 65.2092 5.93216 64.9444 6.10868C64.6796 6.28519 64.4664 6.51319 64.3046 6.79268C64.1575 7.05745 64.0839 7.37371 64.0839 7.74145V15.6405H62.3187Z"/></svg>