<svg xmlns="http://www.w3.org/2000/svg" width="22" height="23" fill="none" viewBox="0 0 22 23"><rect width="22" height="23" fill="#1E1E1E"/><g id="MacBook Pro 14&quot; - 8" clip-path="url(#clip0_0_1)"><rect width="1512" height="982" fill="#fff" transform="translate(-655 -701)"/><g id="Rich Bistre"><g id="Colors"><mask id="mask0_0_1" style="mask-type:alpha" width="1898" height="982" x="-848" y="-701" maskUnits="userSpaceOnUse"><rect id="Mask" width="1898" height="982" x="-848" y="-701" fill="#D9D9D9" rx="42"/></mask><g mask="url(#mask0_0_1)"><rect id="Background" width="1898" height="982" x="-848" y="-701" fill="#fff"/><g id="BR" filter="url(#filter0_f_0_1)"><ellipse cx="-848" cy="-210" fill="#1B0E0A" rx="1510.73" ry="1511.36"/></g><g id="TL" filter="url(#filter1_f_0_1)"><ellipse cx="1050" cy="-701" fill="#231912" rx="958.586" ry="958.984"/></g><g id="BR_2" filter="url(#filter2_f_0_1)"><ellipse cx="1050" cy="281" fill="#271910" rx="981.592" ry="982"/></g><g id="BR_3" filter="url(#filter3_f_0_1)"><ellipse cx="101" cy="-701" fill="#271910" rx="981.592" ry="982"/></g><g id="TR" filter="url(#filter4_f_0_1)"><ellipse cx="1050" cy="-701" fill="#3F2C20" rx="981.592" ry="982"/></g><g id="BR_4" filter="url(#filter5_f_0_1)"><ellipse cx="101" cy="281" fill="#060201" rx="981.592" ry="982"/></g></g></g></g><path id="powered by e1even AI" fill="#fff" d="M-44.3296 14.5734C-43.8292 13.7023 -43.0879 12.9795 -42.1056 12.405C-41.1048 11.8119 -39.9465 11.5154 -38.6306 11.5154C-37.2777 11.5154 -36.0545 11.8397 -34.961 12.4884C-33.849 13.1371 -32.9779 14.0545 -32.3478 15.2406C-31.7177 16.4082 -31.4026 17.7704 -31.4026 19.3272C-31.4026 20.8655 -31.7177 22.2369 -32.3478 23.4416C-32.9779 24.6463 -33.849 25.5822 -34.961 26.2494C-36.0545 26.9166 -37.2777 27.2502 -38.6306 27.2502C-39.9279 27.2502 -41.077 26.9629 -42.0778 26.3884C-43.0601 25.7953 -43.8107 25.0633 -44.3296 24.1922V34.228H-46.8594V11.7656H-44.3296V14.5734ZM-33.988 19.3272C-33.988 18.1781 -34.2197 17.1773 -34.683 16.3248C-35.1463 15.4723 -35.7765 14.8236 -36.5734 14.3788C-37.3518 13.934 -38.2136 13.7116 -39.1588 13.7116C-40.0855 13.7116 -40.9473 13.9433 -41.7442 14.4066C-42.5226 14.8514 -43.1527 15.5093 -43.6346 16.3804C-44.0979 17.2329 -44.3296 18.2245 -44.3296 19.355C-44.3296 20.5041 -44.0979 21.5141 -43.6346 22.3852C-43.1527 23.2377 -42.5226 23.8957 -41.7442 24.359C-40.9473 24.8038 -40.0855 25.0262 -39.1588 25.0262C-38.2136 25.0262 -37.3518 24.8038 -36.5734 24.359C-35.7765 23.8957 -35.1463 23.2377 -34.683 22.3852C-34.2197 21.5141 -33.988 20.4948 -33.988 19.3272ZM-21.4285 27.2502C-22.8555 27.2502 -24.1529 26.9259 -25.3205 26.2772C-26.4695 25.6285 -27.3777 24.7111 -28.0449 23.525C-28.6935 22.3203 -29.0179 20.9303 -29.0179 19.355C-29.0179 17.7982 -28.6843 16.4267 -28.0171 15.2406C-27.3313 14.0359 -26.4047 13.1185 -25.2371 12.4884C-24.0695 11.8397 -22.7629 11.5154 -21.3173 11.5154C-19.8717 11.5154 -18.5651 11.8397 -17.3975 12.4884C-16.2299 13.1185 -15.3125 14.0267 -14.6453 15.2128C-13.9595 16.3989 -13.6167 17.7797 -13.6167 19.355C-13.6167 20.9303 -13.9688 22.3203 -14.6731 23.525C-15.3588 24.7111 -16.2947 25.6285 -17.4809 26.2772C-18.667 26.9259 -19.9829 27.2502 -21.4285 27.2502ZM-21.4285 25.0262C-20.5203 25.0262 -19.6678 24.8131 -18.8709 24.3868C-18.0739 23.9605 -17.4345 23.3211 -16.9527 22.4686C-16.4523 21.6161 -16.2021 20.5782 -16.2021 19.355C-16.2021 18.1318 -16.443 17.0939 -16.9249 16.2414C-17.4067 15.3889 -18.0369 14.7587 -18.8153 14.351C-19.5937 13.9247 -20.4369 13.7116 -21.3451 13.7116C-22.2717 13.7116 -23.1243 13.9247 -23.9027 14.351C-24.6625 14.7587 -25.2741 15.3889 -25.7375 16.2414C-26.2008 17.0939 -26.4325 18.1318 -26.4325 19.355C-26.4325 20.5967 -26.2101 21.6439 -25.7653 22.4964C-25.3019 23.3489 -24.6903 23.9883 -23.9305 24.4146C-23.1706 24.8223 -22.3366 25.0262 -21.4285 25.0262ZM10.0035 11.7656L5.24975 27H2.63655L-1.03305 14.907L-4.70265 27H-7.31585L-12.0975 11.7656H-9.51205L-6.00925 24.5536L-2.22845 11.7656H0.356947L4.05435 24.5814L7.50155 11.7656H10.0035ZM26.4142 18.799C26.4142 19.2809 26.3864 19.7905 26.3308 20.328H14.1544C14.2471 21.8292 14.7568 23.0061 15.6834 23.8586C16.6286 24.6926 17.7684 25.1096 19.1028 25.1096C20.1963 25.1096 21.1044 24.8594 21.8272 24.359C22.5686 23.8401 23.0875 23.1543 23.384 22.3018H26.1084C25.7007 23.7659 24.8852 24.9613 23.662 25.888C22.4388 26.7961 20.9191 27.2502 19.1028 27.2502C17.6572 27.2502 16.3599 26.9259 15.2108 26.2772C14.0803 25.6285 13.1907 24.7111 12.542 23.525C11.8934 22.3203 11.569 20.9303 11.569 19.355C11.569 17.7797 11.8841 16.3989 12.5142 15.2128C13.1444 14.0267 14.0247 13.1185 15.1552 12.4884C16.3043 11.8397 17.6202 11.5154 19.1028 11.5154C20.5484 11.5154 21.8272 11.8305 22.9392 12.4606C24.0512 13.0907 24.9038 13.9618 25.4968 15.0738C26.1084 16.1673 26.4142 17.409 26.4142 18.799ZM23.801 18.2708C23.801 17.3071 23.5879 16.4823 23.1616 15.7966C22.7354 15.0923 22.1516 14.5641 21.4102 14.212C20.6874 13.8413 19.8812 13.656 18.9916 13.656C17.7128 13.656 16.6194 14.0637 15.7112 14.8792C14.8216 15.6947 14.312 16.8252 14.1822 18.2708H23.801ZM32.2833 14.2398C32.7281 13.3687 33.3582 12.6923 34.1737 12.2104C35.0077 11.7285 36.0178 11.4876 37.2039 11.4876V14.1008H36.5367C33.7011 14.1008 32.2833 15.6391 32.2833 18.7156V27H29.7535V11.7656H32.2833V14.2398ZM54.0242 18.799C54.0242 19.2809 53.9964 19.7905 53.9408 20.328H41.7644C41.8571 21.8292 42.3667 23.0061 43.2934 23.8586C44.2386 24.6926 45.3784 25.1096 46.7128 25.1096C47.8063 25.1096 48.7144 24.8594 49.4372 24.359C50.1785 23.8401 50.6975 23.1543 50.994 22.3018H53.7184C53.3107 23.7659 52.4952 24.9613 51.272 25.888C50.0488 26.7961 48.5291 27.2502 46.7128 27.2502C45.2672 27.2502 43.9699 26.9259 42.8208 26.2772C41.6903 25.6285 40.8007 24.7111 40.152 23.525C39.5033 22.3203 39.179 20.9303 39.179 19.355C39.179 17.7797 39.4941 16.3989 40.1242 15.2128C40.7543 14.0267 41.6347 13.1185 42.7652 12.4884C43.9143 11.8397 45.2301 11.5154 46.7128 11.5154C48.1584 11.5154 49.4372 11.8305 50.5492 12.4606C51.6612 13.0907 52.5137 13.9618 53.1068 15.0738C53.7184 16.1673 54.0242 17.409 54.0242 18.799ZM51.411 18.2708C51.411 17.3071 51.1979 16.4823 50.7716 15.7966C50.3453 15.0923 49.7615 14.5641 49.0202 14.212C48.2974 13.8413 47.4912 13.656 46.6016 13.656C45.3228 13.656 44.2293 14.0637 43.3212 14.8792C42.4316 15.6947 41.9219 16.8252 41.7922 18.2708H51.411ZM56.4183 19.3272C56.4183 17.7704 56.7333 16.4082 57.3635 15.2406C57.9936 14.0545 58.8554 13.1371 59.9489 12.4884C61.0609 11.8397 62.3026 11.5154 63.6741 11.5154C64.8602 11.5154 65.9629 11.7934 66.9823 12.3494C68.0016 12.8869 68.78 13.6004 69.3175 14.49V6.428H71.8751V27H69.3175V24.1366C68.8171 25.0447 68.0757 25.7953 67.0935 26.3884C66.1112 26.9629 64.9621 27.2502 63.6463 27.2502C62.2933 27.2502 61.0609 26.9166 59.9489 26.2494C58.8554 25.5822 57.9936 24.6463 57.3635 23.4416C56.7333 22.2369 56.4183 20.8655 56.4183 19.3272ZM69.3175 19.355C69.3175 18.2059 69.0858 17.2051 68.6225 16.3526C68.1591 15.5001 67.529 14.8514 66.7321 14.4066C65.9537 13.9433 65.0919 13.7116 64.1467 13.7116C63.2015 13.7116 62.3397 13.934 61.5613 14.3788C60.7829 14.8236 60.162 15.4723 59.6987 16.3248C59.2353 17.1773 59.0037 18.1781 59.0037 19.3272C59.0037 20.4948 59.2353 21.5141 59.6987 22.3852C60.162 23.2377 60.7829 23.8957 61.5613 24.359C62.3397 24.8038 63.2015 25.0262 64.1467 25.0262C65.0919 25.0262 65.9537 24.8038 66.7321 24.359C67.529 23.8957 68.1591 23.2377 68.6225 22.3852C69.0858 21.5141 69.3175 20.5041 69.3175 19.355ZM86.0915 14.6012C86.6104 13.6931 87.3703 12.9517 88.3711 12.3772C89.3719 11.8027 90.5117 11.5154 91.7905 11.5154C93.162 11.5154 94.3944 11.8397 95.4879 12.4884C96.5814 13.1371 97.4432 14.0545 98.0733 15.2406C98.7034 16.4082 99.0185 17.7704 99.0185 19.3272C99.0185 20.8655 98.7034 22.2369 98.0733 23.4416C97.4432 24.6463 96.5721 25.5822 95.4601 26.2494C94.3666 26.9166 93.1434 27.2502 91.7905 27.2502C90.4746 27.2502 89.3163 26.9629 88.3155 26.3884C87.3332 25.8139 86.5919 25.0818 86.0915 24.1922V27H83.5617V6.428H86.0915V14.6012ZM96.4331 19.3272C96.4331 18.1781 96.2014 17.1773 95.7381 16.3248C95.2748 15.4723 94.6446 14.8236 93.8477 14.3788C93.0693 13.934 92.2075 13.7116 91.2623 13.7116C90.3356 13.7116 89.4738 13.9433 88.6769 14.4066C87.8985 14.8514 87.2684 15.5093 86.7865 16.3804C86.3232 17.2329 86.0915 18.2245 86.0915 19.355C86.0915 20.5041 86.3232 21.5141 86.7865 22.3852C87.2684 23.2377 87.8985 23.8957 88.6769 24.359C89.4738 24.8038 90.3356 25.0262 91.2623 25.0262C92.2075 25.0262 93.0693 24.8038 93.8477 24.359C94.6446 23.8957 95.2748 23.2377 95.7381 22.3852C96.2014 21.5141 96.4331 20.4948 96.4331 19.3272ZM115.47 11.7656L106.296 34.1724H103.683L106.685 26.8332L100.541 11.7656H103.349L108.131 24.1088L112.857 11.7656H115.47ZM139.325 18.799C139.325 19.2809 139.297 19.7905 139.241 20.328H127.065C127.157 21.8292 127.667 23.0061 128.594 23.8586C129.539 24.6926 130.679 25.1096 132.013 25.1096C133.107 25.1096 134.015 24.8594 134.738 24.359C135.479 23.8401 135.998 23.1543 136.294 22.3018H139.019C138.611 23.7659 137.796 24.9613 136.572 25.888C135.349 26.7961 133.829 27.2502 132.013 27.2502C130.568 27.2502 129.27 26.9259 128.121 26.2772C126.991 25.6285 126.101 24.7111 125.452 23.525C124.804 22.3203 124.479 20.9303 124.479 19.355C124.479 17.7797 124.794 16.3989 125.425 15.2128C126.055 14.0267 126.935 13.1185 128.066 12.4884C129.215 11.8397 130.531 11.5154 132.013 11.5154C133.459 11.5154 134.738 11.8305 135.85 12.4606C136.962 13.0907 137.814 13.9618 138.407 15.0738C139.019 16.1673 139.325 17.409 139.325 18.799ZM136.711 18.2708C136.711 17.3071 136.498 16.4823 136.072 15.7966C135.646 15.0923 135.062 14.5641 134.321 14.212C133.598 13.8413 132.792 13.656 131.902 13.656C130.623 13.656 129.53 14.0637 128.622 14.8792C127.732 15.6947 127.222 16.8252 127.093 18.2708H136.711ZM141.58 9.208V6.9006H146.806V27H144.248V9.208H141.58ZM165.469 18.799C165.469 19.2809 165.441 19.7905 165.385 20.328H153.209C153.301 21.8292 153.811 23.0061 154.738 23.8586C155.683 24.6926 156.823 25.1096 158.157 25.1096C159.251 25.1096 160.159 24.8594 160.882 24.359C161.623 23.8401 162.142 23.1543 162.438 22.3018H165.163C164.755 23.7659 163.94 24.9613 162.716 25.888C161.493 26.7961 159.973 27.2502 158.157 27.2502C156.712 27.2502 155.414 26.9259 154.265 26.2772C153.135 25.6285 152.245 24.7111 151.596 23.525C150.948 22.3203 150.623 20.9303 150.623 19.355C150.623 17.7797 150.938 16.3989 151.569 15.2128C152.199 14.0267 153.079 13.1185 154.21 12.4884C155.359 11.8397 156.674 11.5154 158.157 11.5154C159.603 11.5154 160.882 11.8305 161.994 12.4606C163.106 13.0907 163.958 13.9618 164.551 15.0738C165.163 16.1673 165.469 17.409 165.469 18.799ZM162.855 18.2708C162.855 17.3071 162.642 16.4823 162.216 15.7966C161.79 15.0923 161.206 14.5641 160.465 14.212C159.742 13.8413 158.936 13.656 158.046 13.656C156.767 13.656 155.674 14.0637 154.766 14.8792C153.876 15.6947 153.366 16.8252 153.237 18.2708H162.855ZM174.479 24.6648L179.205 11.7656H181.902L175.925 27H172.978L167.001 11.7656H169.725L174.479 24.6648ZM198.291 18.799C198.291 19.2809 198.263 19.7905 198.208 20.328H186.031C186.124 21.8292 186.634 23.0061 187.56 23.8586C188.505 24.6926 189.645 25.1096 190.98 25.1096C192.073 25.1096 192.981 24.8594 193.704 24.359C194.445 23.8401 194.964 23.1543 195.261 22.3018H197.985C197.577 23.7659 196.762 24.9613 195.539 25.888C194.316 26.7961 192.796 27.2502 190.98 27.2502C189.534 27.2502 188.237 26.9259 187.088 26.2772C185.957 25.6285 185.067 24.7111 184.419 23.525C183.77 22.3203 183.446 20.9303 183.446 19.355C183.446 17.7797 183.761 16.3989 184.391 15.2128C185.021 14.0267 185.901 13.1185 187.032 12.4884C188.181 11.8397 189.497 11.5154 190.98 11.5154C192.425 11.5154 193.704 11.8305 194.816 12.4606C195.928 13.0907 196.781 13.9618 197.374 15.0738C197.985 16.1673 198.291 17.409 198.291 18.799ZM195.678 18.2708C195.678 17.3071 195.465 16.4823 195.038 15.7966C194.612 15.0923 194.028 14.5641 193.287 14.212C192.564 13.8413 191.758 13.656 190.868 13.656C189.59 13.656 188.496 14.0637 187.588 14.8792C186.698 15.6947 186.189 16.8252 186.059 18.2708H195.678ZM209.053 11.4876C210.906 11.4876 212.407 12.0529 213.556 13.1834C214.706 14.2954 215.28 15.9078 215.28 18.0206V27H212.778V18.382C212.778 16.8623 212.398 15.7039 211.638 14.907C210.878 14.0915 209.841 13.6838 208.525 13.6838C207.19 13.6838 206.125 14.1008 205.328 14.9348C204.549 15.7688 204.16 16.9827 204.16 18.5766V27H201.63V11.7656H204.16V13.934C204.66 13.1556 205.337 12.5533 206.189 12.127C207.061 11.7007 208.015 11.4876 209.053 11.4876ZM238.278 22.691H229.826L228.27 27H225.601L232.606 7.7346H235.525L242.503 27H239.834L238.278 22.691ZM237.555 20.6338L234.052 10.8482L230.549 20.6338H237.555ZM248.086 7.6234V27H245.556V7.6234H248.086Z"/><g id="Group 3"><g id="Rectangle 12" filter="url(#filter6_b_0_1)"><rect width="718.4" height="615.2" x="-258.2" y="-517.1" fill="url(#paint0_linear_0_1)" fill-opacity=".05" rx="12"/></g><g id="Frame 71"><rect id="Rectangle 14" width="545.76" height="46.08" x="-171.88" y="-12.14" fill="#D9D9D9" rx="23.04"/><g id="Frame 70"><g id="devicon:google" clip-path="url(#clip1_0_1)"><path id="Vector" fill="#fff" d="M7.66499 1.15563C5.47804 1.91431 3.59201 3.35429 2.28395 5.26408C0.975877 7.17387 0.31471 9.4528 0.397561 11.7661C0.480412 14.0795 1.30291 16.3052 2.74425 18.1166C4.18559 19.9279 6.1698 21.2293 8.40542 21.8295C10.2179 22.2972 12.1168 22.3178 13.939 21.8894C15.5897 21.5186 17.1158 20.7255 18.3679 19.5877C19.671 18.3674 20.6169 16.8149 21.1039 15.0973C21.633 13.2293 21.7272 11.2651 21.3792 9.35508H11.2013V13.5771H17.0956C16.9778 14.2505 16.7254 14.8931 16.3534 15.4667C15.9814 16.0402 15.4976 16.5328 14.9308 16.915C14.2111 17.3913 13.3997 17.7117 12.5487 17.8555C11.6954 18.0142 10.82 18.0142 9.96665 17.8555C9.10165 17.6769 8.28339 17.3199 7.5641 16.8073C6.40839 15.9892 5.54062 14.827 5.0846 13.4864C4.621 12.1208 4.621 10.6404 5.0846 9.27471C5.4092 8.31748 5.94581 7.44593 6.65438 6.7251C7.46525 5.88506 8.49183 5.2846 9.62149 4.98958C10.7512 4.69457 11.9403 4.71642 13.0583 5.05272C13.9318 5.32072 14.7305 5.78918 15.3908 6.42072C16.0554 5.75952 16.7189 5.09661 17.3812 4.43199C17.7232 4.0746 18.096 3.73431 18.4329 3.36837C17.4249 2.43047 16.2418 1.70062 14.9513 1.22061C12.6013 0.367307 10.0299 0.344375 7.66499 1.15563Z"/><path id="Vector_2" fill="#E33629" d="M7.66502 1.15573C10.0297 0.343922 12.6011 0.366251 14.9513 1.219C16.242 1.70227 17.4246 2.43563 18.4312 3.37702C18.0892 3.74296 17.7284 4.08496 17.3795 4.44064C16.716 5.10298 16.0531 5.76304 15.3908 6.42082C14.7306 5.78928 13.9318 5.32082 13.0584 5.05282C11.9407 4.71534 10.7516 4.69223 9.62163 4.98603C8.49166 5.27984 7.46445 5.8792 6.6527 6.71836C5.94413 7.43919 5.40752 8.31074 5.08292 9.26797L1.53809 6.52342C2.80692 4.00726 5.00383 2.08259 7.66502 1.15573Z"/><path id="Vector_3" fill="#F8BD00" d="M0.597777 9.24234C0.788168 8.29803 1.10449 7.38356 1.53828 6.52344L5.08311 9.27483C4.61951 10.6405 4.61951 12.1209 5.08311 13.4866C3.90207 14.3986 2.72046 15.3151 1.53828 16.2362C0.452685 14.0753 0.121598 11.6133 0.597777 9.24234Z"/><path id="Vector_4" fill="#587DBD" d="M11.201 9.35327H21.3789C21.7268 11.2632 21.6327 13.2275 21.1036 15.0955C20.6166 16.8131 19.6707 18.3656 18.3676 19.5859C17.2236 18.6933 16.0745 17.8075 14.9305 16.9149C15.4976 16.5323 15.9817 16.0392 16.3537 15.465C16.7257 14.8909 16.978 14.2475 17.0953 13.5736H11.201C11.1992 12.1679 11.201 10.7606 11.201 9.35327Z"/><path id="Vector_5" fill="#319F43" d="M1.53613 16.2363C2.71831 15.3243 3.89992 14.4077 5.08096 13.4866C5.53789 14.8276 6.40691 15.9898 7.56388 16.8074C8.28542 17.3176 9.10544 17.6717 9.97156 17.8471C10.8249 18.0058 11.7003 18.0058 12.5537 17.8471C13.4046 17.7032 14.216 17.3829 14.9357 16.9066C16.0797 17.7992 17.2288 18.685 18.3728 19.5776C17.1209 20.716 15.5948 21.5097 13.9439 21.881C12.1217 22.3093 10.2228 22.2888 8.41033 21.8211C6.97684 21.4384 5.63787 20.7636 4.47733 19.8392C3.24909 18.8639 2.24584 17.6349 1.53613 16.2363Z"/></g></g></g></g></g><defs><filter id="filter0_f_0_1" width="5021.46" height="5022.72" x="-3358.73" y="-2721.36" color-interpolation-filters="sRGB" filterUnits="userSpaceOnUse"><feFlood flood-opacity="0" result="BackgroundImageFix"/><feBlend in="SourceGraphic" in2="BackgroundImageFix" mode="normal" result="shape"/><feGaussianBlur result="effect1_foregroundBlur_0_1" stdDeviation="500"/></filter><filter id="filter1_f_0_1" width="3917.17" height="3917.97" x="-908.586" y="-2659.98" color-interpolation-filters="sRGB" filterUnits="userSpaceOnUse"><feFlood flood-opacity="0" result="BackgroundImageFix"/><feBlend in="SourceGraphic" in2="BackgroundImageFix" mode="normal" result="shape"/><feGaussianBlur result="effect1_foregroundBlur_0_1" stdDeviation="500"/></filter><filter id="filter2_f_0_1" width="3963.18" height="3964" x="-931.592" y="-1701" color-interpolation-filters="sRGB" filterUnits="userSpaceOnUse"><feFlood flood-opacity="0" result="BackgroundImageFix"/><feBlend in="SourceGraphic" in2="BackgroundImageFix" mode="normal" result="shape"/><feGaussianBlur result="effect1_foregroundBlur_0_1" stdDeviation="500"/></filter><filter id="filter3_f_0_1" width="3963.18" height="3964" x="-1880.59" y="-2683" color-interpolation-filters="sRGB" filterUnits="userSpaceOnUse"><feFlood flood-opacity="0" result="BackgroundImageFix"/><feBlend in="SourceGraphic" in2="BackgroundImageFix" mode="normal" result="shape"/><feGaussianBlur result="effect1_foregroundBlur_0_1" stdDeviation="500"/></filter><filter id="filter4_f_0_1" width="3563.18" height="3564" x="-731.592" y="-2483" color-interpolation-filters="sRGB" filterUnits="userSpaceOnUse"><feFlood flood-opacity="0" result="BackgroundImageFix"/><feBlend in="SourceGraphic" in2="BackgroundImageFix" mode="normal" result="shape"/><feGaussianBlur result="effect1_foregroundBlur_0_1" stdDeviation="400"/></filter><filter id="filter5_f_0_1" width="3963.18" height="3964" x="-1880.59" y="-1701" color-interpolation-filters="sRGB" filterUnits="userSpaceOnUse"><feFlood flood-opacity="0" result="BackgroundImageFix"/><feBlend in="SourceGraphic" in2="BackgroundImageFix" mode="normal" result="shape"/><feGaussianBlur result="effect1_foregroundBlur_0_1" stdDeviation="500"/></filter><filter id="filter6_b_0_1" width="782.4" height="679.2" x="-290.2" y="-549.1" color-interpolation-filters="sRGB" filterUnits="userSpaceOnUse"><feFlood flood-opacity="0" result="BackgroundImageFix"/><feGaussianBlur in="BackgroundImageFix" stdDeviation="16"/><feComposite in2="SourceAlpha" operator="in" result="effect1_backgroundBlur_0_1"/><feBlend in="SourceGraphic" in2="effect1_backgroundBlur_0_1" mode="normal" result="shape"/></filter><linearGradient id="paint0_linear_0_1" x1="-258.2" x2="559.289" y1="-517.1" y2="-92.823" gradientUnits="userSpaceOnUse"><stop stop-color="#fff"/><stop offset="1" stop-color="#E8E5E5"/></linearGradient><clipPath id="clip0_0_1"><rect width="1512" height="982" fill="#fff" transform="translate(-655 -701)"/></clipPath><clipPath id="clip1_0_1"><rect width="21.888" height="21.888" fill="#fff" transform="translate(0.0400391 0.435791)"/></clipPath></defs></svg>